<?xml version="1.0" encoding="UTF-8"?><svg id="Layer_1" xmlns="http://www.w3.org/2000/svg" viewBox="0 0 289 217"><defs><style>.cls-1{fill:#231f20;stroke-width:0px;}.cls-2{fill:#fff;stroke:#231f20;stroke-miterlimit:10;}</style></defs><path class="cls-2" d="M18.58,216.5c-9.98,0-18.08-8.09-18.08-18.08V18.58C.5,8.59,8.59.5,18.58.5h251.84c9.98,0,18.08,8.09,18.08,18.08v179.84c0,9.98-8.09,18.08-18.08,18.08H18.58ZM36.24,171.5h216.52c9.8,0,17.74-7.94,17.74-17.74V36.24c0-9.8-7.94-17.74-17.74-17.74H36.24c-9.8,0-17.74,7.94-17.74,17.74v117.52c0,9.8,7.94,17.74,17.74,17.74Z"/><path class="cls-1" d="M85.09,184.11v6.03h-.91v-6.03h.91Z"/><path class="cls-1" d="M86.37,186.33h.88v.35c.31-.3.65-.46,1.04-.46.44,0,.79.14,1.04.42.21.24.32.62.32,1.16v2.33h-.88v-2.12c0-.38-.05-.63-.16-.78-.1-.15-.29-.22-.55-.22-.29,0-.5.1-.62.29-.12.19-.18.52-.18,1v1.84h-.88v-3.8Z"/><path class="cls-1" d="M92.97,186.98l-.73.39c-.11-.23-.26-.35-.43-.35-.08,0-.15.03-.21.08s-.09.12-.09.21c0,.15.17.29.51.43.47.2.78.39.94.55s.24.4.24.68c0,.37-.14.67-.41.92-.26.23-.58.35-.95.35-.64,0-1.09-.31-1.36-.93l.75-.35c.1.18.18.3.24.35.11.1.23.15.38.15.3,0,.45-.14.45-.41,0-.16-.11-.3-.34-.44-.09-.04-.18-.09-.27-.13s-.18-.08-.27-.13c-.26-.12-.44-.25-.54-.38-.13-.16-.2-.36-.2-.61,0-.33.11-.6.34-.82.23-.22.51-.32.84-.32.49,0,.85.25,1.09.75Z"/><path class="cls-1" d="M94.91,187.15v2.98h-.88v-2.98h-.38v-.82h.38v-1.39h.88v1.39h.68v.82h-.68Z"/><path class="cls-1" d="M96.19,186.33h.88v.34c.16-.17.3-.29.43-.35.13-.06.28-.1.45-.1.23,0,.47.08.73.23l-.4.8c-.17-.12-.33-.18-.49-.18-.48,0-.72.36-.72,1.09v1.97h-.88v-3.8Z"/><path class="cls-1" d="M100.18,186.33v2.18c0,.63.25.95.75.95s.75-.31.75-.95v-2.18h.88v2.2c0,.3-.04.57-.11.79-.07.2-.2.38-.38.54-.3.26-.67.39-1.13.39s-.83-.13-1.13-.39c-.18-.16-.31-.34-.39-.54-.07-.18-.11-.44-.11-.79v-2.2h.88Z"/><path class="cls-1" d="M106.62,186.5v1.17c-.2-.24-.38-.41-.54-.5-.16-.09-.34-.14-.55-.14-.33,0-.61.12-.82.35s-.33.52-.33.87.11.65.32.88c.21.23.49.34.82.34.21,0,.4-.05.56-.14.16-.09.34-.26.55-.52v1.16c-.36.19-.71.28-1.07.28-.59,0-1.08-.19-1.48-.57-.4-.38-.59-.86-.59-1.43s.2-1.05.6-1.44.89-.59,1.48-.59c.38,0,.73.09,1.06.27Z"/><path class="cls-1" d="M108.38,187.15v2.98h-.88v-2.98h-.38v-.82h.38v-1.39h.88v1.39h.68v.82h-.68Z"/><path class="cls-1" d="M109.53,184.75c0-.15.06-.29.17-.4s.25-.17.4-.17.29.06.41.17c.11.11.17.24.17.4s-.06.29-.17.41c-.11.11-.24.17-.4.17s-.29-.06-.41-.17-.17-.25-.17-.41ZM110.54,186.33v3.8h-.88v-3.8h.88Z"/><path class="cls-1" d="M111.48,188.21c0-.55.2-1.02.59-1.4s.87-.58,1.44-.58,1.05.19,1.45.58c.39.39.59.86.59,1.43s-.2,1.05-.59,1.43c-.4.38-.88.57-1.46.57s-1.05-.2-1.43-.59c-.39-.39-.58-.87-.58-1.45ZM112.38,188.22c0,.38.1.68.3.9.21.22.48.34.82.34s.62-.11.82-.33.31-.52.31-.89-.1-.67-.31-.89c-.21-.22-.48-.34-.82-.34s-.61.11-.82.34-.31.51-.31.87Z"/><path class="cls-1" d="M116.46,186.33h.88v.35c.31-.3.65-.46,1.04-.46.44,0,.79.14,1.04.42.21.24.32.62.32,1.16v2.33h-.88v-2.12c0-.38-.05-.63-.16-.78-.1-.15-.29-.22-.55-.22-.29,0-.5.1-.62.29-.12.19-.18.52-.18,1v1.84h-.88v-3.8Z"/><path class="cls-1" d="M123.06,186.98l-.73.39c-.11-.23-.26-.35-.43-.35-.08,0-.15.03-.21.08s-.09.12-.09.21c0,.15.17.29.51.43.47.2.78.39.94.55s.24.4.24.68c0,.37-.14.67-.41.92-.26.23-.58.35-.95.35-.64,0-1.09-.31-1.36-.93l.75-.35c.1.18.18.3.24.35.11.1.23.15.38.15.3,0,.45-.14.45-.41,0-.16-.11-.3-.34-.44-.09-.04-.18-.09-.27-.13s-.18-.08-.27-.13c-.26-.12-.44-.25-.54-.38-.13-.16-.2-.36-.2-.61,0-.33.11-.6.34-.82.23-.22.51-.32.84-.32.49,0,.85.25,1.09.75Z"/><path class="cls-1" d="M124.23,189.7c0-.15.05-.27.16-.38s.23-.16.38-.16.28.05.38.16.16.23.16.38-.05.28-.16.39-.23.16-.38.16-.28-.05-.39-.16-.16-.23-.16-.39ZM124.23,186.76c0-.14.05-.27.16-.38s.23-.16.38-.16.28.05.38.16.16.23.16.38-.05.28-.16.39-.23.16-.38.16-.28-.05-.39-.16-.16-.23-.16-.39Z"/><path class="cls-1" d="M130.11,187.69v2.45h-.91v-6.03h1.03c.51,0,.89.04,1.14.11.26.07.49.2.69.4.35.34.52.77.52,1.28,0,.55-.19.99-.55,1.31s-.87.48-1.5.48h-.42ZM130.11,186.84h.34c.84,0,1.25-.32,1.25-.96s-.43-.93-1.29-.93h-.3v1.9Z"/><path class="cls-1" d="M134.23,183.54v6.6h-.88v-6.6h.88Z"/><path class="cls-1" d="M138.15,186.33h.88v3.8h-.88v-.4c-.36.34-.75.51-1.17.51-.53,0-.96-.19-1.3-.57-.34-.39-.51-.87-.51-1.45s.17-1.05.51-1.43.77-.57,1.28-.57c.44,0,.84.18,1.19.55v-.44ZM136.07,188.22c0,.36.1.66.29.89.2.23.45.35.76.35.33,0,.59-.11.79-.34.2-.23.3-.53.3-.88s-.1-.65-.3-.88c-.2-.23-.46-.34-.78-.34-.3,0-.55.11-.76.34-.2.23-.3.52-.3.86Z"/><path class="cls-1" d="M143.11,186.5v1.17c-.2-.24-.38-.41-.54-.5-.16-.09-.34-.14-.55-.14-.33,0-.61.12-.82.35s-.33.52-.33.87.11.65.32.88c.21.23.49.34.82.34.21,0,.4-.05.56-.14.16-.09.34-.26.55-.52v1.16c-.36.19-.71.28-1.07.28-.59,0-1.08-.19-1.48-.57-.4-.38-.59-.86-.59-1.43s.2-1.05.6-1.44.89-.59,1.48-.59c.38,0,.73.09,1.06.27Z"/><path class="cls-1" d="M147.42,188.44h-2.73c.02.31.12.56.3.75.18.18.41.27.69.27.22,0,.4-.05.54-.16.14-.1.3-.3.48-.58l.74.41c-.11.2-.24.36-.36.5s-.26.25-.41.34-.3.16-.47.2-.35.06-.55.06c-.57,0-1.02-.18-1.37-.55-.34-.37-.52-.85-.52-1.46s.17-1.09.5-1.46c.34-.37.78-.55,1.34-.55s1,.18,1.33.54c.32.35.48.85.48,1.47v.21ZM146.52,187.72c-.12-.47-.42-.7-.89-.7-.11,0-.21.02-.3.05s-.18.08-.26.14-.14.13-.2.22-.1.18-.12.29h1.77Z"/><path class="cls-1" d="M151.73,183.54v3.23c.35-.36.75-.55,1.2-.55.51,0,.94.19,1.28.57.34.38.51.85.51,1.42s-.17,1.07-.52,1.45c-.34.38-.77.57-1.29.57-.44,0-.83-.17-1.18-.51v.4h-.88v-6.6h.88ZM153.82,188.26c0-.36-.1-.66-.3-.89-.2-.23-.45-.35-.75-.35-.32,0-.59.11-.79.34-.2.22-.3.52-.3.88s.1.67.3.89c.2.23.46.34.78.34.3,0,.56-.11.76-.34.2-.23.3-.52.3-.86Z"/><path class="cls-1" d="M159.11,188.44h-2.73c.02.31.12.56.3.75.18.18.41.27.69.27.22,0,.4-.05.54-.16.14-.1.3-.3.48-.58l.74.41c-.11.2-.24.36-.36.5s-.26.25-.41.34-.3.16-.47.2-.35.06-.55.06c-.57,0-1.02-.18-1.37-.55-.34-.37-.52-.85-.52-1.46s.17-1.09.5-1.46c.34-.37.78-.55,1.34-.55s1,.18,1.33.54c.32.35.48.85.48,1.47v.21ZM158.21,187.72c-.12-.47-.42-.7-.89-.7-.11,0-.21.02-.3.05s-.18.08-.26.14-.14.13-.2.22-.1.18-.12.29h1.77Z"/><path class="cls-1" d="M161.05,187.15v2.98h-.88v-2.98h-.38v-.82h.38v-1.39h.88v1.39h.68v.82h-.68Z"/><path class="cls-1" d="M162.81,186.33l1,2.17,1.07-2.52,1.08,2.52.98-2.17h.98l-1.99,4.09-1.06-2.45-1.07,2.45-1.99-4.09h.99Z"/><path class="cls-1" d="M171.87,188.44h-2.73c.02.31.12.56.3.75.18.18.41.27.69.27.22,0,.4-.05.54-.16.14-.1.3-.3.48-.58l.74.41c-.11.2-.24.36-.36.5s-.26.25-.41.34-.3.16-.47.2-.35.06-.55.06c-.57,0-1.02-.18-1.37-.55-.34-.37-.52-.85-.52-1.46s.17-1.09.5-1.46c.34-.37.78-.55,1.34-.55s1,.18,1.33.54c.32.35.48.85.48,1.47v.21ZM170.96,187.72c-.12-.47-.42-.7-.89-.7-.11,0-.21.02-.3.05s-.18.08-.26.14-.14.13-.2.22-.1.18-.12.29h1.77Z"/><path class="cls-1" d="M176.29,188.44h-2.73c.02.31.12.56.3.75.18.18.41.27.69.27.22,0,.4-.05.54-.16.14-.1.3-.3.48-.58l.74.41c-.11.2-.24.36-.36.5s-.26.25-.41.34-.3.16-.47.2-.35.06-.55.06c-.57,0-1.02-.18-1.37-.55-.34-.37-.52-.85-.52-1.46s.17-1.09.5-1.46c.34-.37.78-.55,1.34-.55s1,.18,1.33.54c.32.35.48.85.48,1.47v.21ZM175.39,187.72c-.12-.47-.42-.7-.89-.7-.11,0-.21.02-.3.05s-.18.08-.26.14-.14.13-.2.22-.1.18-.12.29h1.77Z"/><path class="cls-1" d="M177.25,186.33h.88v.35c.31-.3.65-.46,1.04-.46.44,0,.79.14,1.04.42.21.24.32.62.32,1.16v2.33h-.88v-2.12c0-.38-.05-.63-.16-.78-.1-.15-.29-.22-.55-.22-.29,0-.5.1-.62.29-.12.19-.18.52-.18,1v1.84h-.88v-3.8Z"/><path class="cls-1" d="M185.31,189.43l-1.71-3.1h1.02l1.16,2.19,1.09-2.19h.99l-3.03,5.88h-1l1.48-2.78Z"/><path class="cls-1" d="M188.12,188.21c0-.55.2-1.02.59-1.4s.87-.58,1.44-.58,1.05.19,1.45.58c.39.39.59.86.59,1.43s-.2,1.05-.59,1.43c-.4.38-.88.57-1.46.57s-1.05-.2-1.43-.59c-.39-.39-.58-.87-.58-1.45ZM189.02,188.22c0,.38.1.68.3.9.21.22.48.34.82.34s.62-.11.82-.33.31-.52.31-.89-.1-.67-.31-.89c-.21-.22-.48-.34-.82-.34s-.61.11-.82.34-.31.51-.31.87Z"/><path class="cls-1" d="M193.99,186.33v2.18c0,.63.25.95.75.95s.75-.31.75-.95v-2.18h.88v2.2c0,.3-.04.57-.11.79-.07.2-.2.38-.38.54-.3.26-.67.39-1.13.39s-.83-.13-1.13-.39c-.18-.16-.31-.34-.39-.54-.07-.18-.11-.44-.11-.79v-2.2h.88Z"/><path class="cls-1" d="M197.47,186.33h.88v.34c.16-.17.3-.29.43-.35.13-.06.28-.1.45-.1.23,0,.47.08.73.23l-.4.8c-.17-.12-.33-.18-.49-.18-.48,0-.72.36-.72,1.09v1.97h-.88v-3.8Z"/><path class="cls-1" d="M202.68,186.98l-.73.39c-.11-.23-.26-.35-.43-.35-.08,0-.15.03-.21.08s-.09.12-.09.21c0,.15.17.29.51.43.47.2.78.39.94.55s.24.4.24.68c0,.37-.14.67-.41.92-.26.23-.58.35-.95.35-.64,0-1.09-.31-1.36-.93l.75-.35c.1.18.18.3.24.35.11.1.23.15.38.15.3,0,.45-.14.45-.41,0-.16-.11-.3-.34-.44-.09-.04-.18-.09-.27-.13s-.18-.08-.27-.13c-.26-.12-.44-.25-.54-.38-.13-.16-.2-.36-.2-.61,0-.33.11-.6.34-.82.23-.22.51-.32.84-.32.49,0,.85.25,1.09.75Z"/><path class="cls-1" d="M207.18,188.44h-2.73c.02.31.12.56.3.75.18.18.41.27.69.27.22,0,.4-.05.54-.16.14-.1.3-.3.48-.58l.74.41c-.11.2-.24.36-.36.5s-.26.25-.41.34-.3.16-.47.2-.35.06-.55.06c-.57,0-1.02-.18-1.37-.55-.34-.37-.52-.85-.52-1.46s.17-1.09.5-1.46c.34-.37.78-.55,1.34-.55s1,.18,1.33.54c.32.35.48.85.48,1.47v.21ZM206.27,187.72c-.12-.47-.42-.7-.89-.7-.11,0-.21.02-.3.05s-.18.08-.26.14-.14.13-.2.22-.1.18-.12.29h1.77Z"/><path class="cls-1" d="M209.02,183.54v6.6h-.88v-6.6h.88Z"/><path class="cls-1" d="M211.04,187.15v2.98h-.88v-2.98h-.31v-.82h.31v-1.47c0-.48.08-.82.25-1.02.23-.28.56-.41,1-.41.16,0,.35.05.59.14v.9l-.09-.05c-.19-.1-.35-.14-.47-.14-.16,0-.26.06-.32.17-.05.11-.08.32-.08.63v1.25h.96v.82h-.96Z"/><path class="cls-1" d="M217.78,186.33h.88v3.8h-.88v-.4c-.36.34-.75.51-1.17.51-.53,0-.96-.19-1.3-.57-.34-.39-.51-.87-.51-1.45s.17-1.05.51-1.43.77-.57,1.28-.57c.44,0,.84.18,1.19.55v-.44ZM215.69,188.22c0,.36.1.66.29.89.2.23.45.35.76.35.33,0,.59-.11.79-.34.2-.23.3-.53.3-.88s-.1-.65-.3-.88c-.2-.23-.46-.34-.78-.34-.3,0-.55.11-.76.34-.2.23-.3.52-.3.86Z"/><path class="cls-1" d="M219.77,186.33h.88v.35c.31-.3.65-.46,1.04-.46.44,0,.79.14,1.04.42.21.24.32.62.32,1.16v2.33h-.88v-2.12c0-.38-.05-.63-.16-.78-.1-.15-.29-.22-.55-.22-.29,0-.5.1-.62.29-.12.19-.18.52-.18,1v1.84h-.88v-3.8Z"/><path class="cls-1" d="M226.96,183.54h.88v6.6h-.88v-.4c-.35.34-.74.51-1.18.51-.52,0-.95-.19-1.3-.57-.34-.39-.51-.87-.51-1.45s.17-1.04.51-1.42c.34-.38.76-.57,1.28-.57.45,0,.84.18,1.2.55v-3.23ZM224.88,188.22c0,.36.1.66.29.89.2.23.45.35.76.35.33,0,.59-.11.79-.34.2-.23.3-.53.3-.88s-.1-.65-.3-.88c-.2-.23-.46-.34-.78-.34-.3,0-.55.11-.76.34-.2.23-.3.52-.3.86Z"/><path class="cls-1" d="M232.33,187.15v2.98h-.88v-2.98h-.38v-.82h.38v-1.39h.88v1.39h.68v.82h-.68Z"/><path class="cls-1" d="M233.77,183.54h.88v3.11c.31-.28.66-.42,1.04-.42.43,0,.77.14,1.03.42.22.24.33.63.33,1.16v2.33h-.88v-2.25c0-.3-.05-.53-.16-.66s-.28-.21-.52-.21c-.31,0-.52.1-.65.29-.12.19-.18.52-.18.99v1.84h-.88v-6.6Z"/><path class="cls-1" d="M240.96,186.33h.88v3.8h-.88v-.4c-.36.34-.75.51-1.17.51-.53,0-.96-.19-1.3-.57-.34-.39-.51-.87-.51-1.45s.17-1.05.51-1.43.77-.57,1.28-.57c.44,0,.84.18,1.19.55v-.44ZM238.88,188.22c0,.36.1.66.29.89.2.23.45.35.76.35.33,0,.59-.11.79-.34.2-.23.3-.53.3-.88s-.1-.65-.3-.88c-.2-.23-.46-.34-.78-.34-.3,0-.55.11-.76.34-.2.23-.3.52-.3.86Z"/><path class="cls-1" d="M243.86,187.15v2.98h-.88v-2.98h-.38v-.82h.38v-1.39h.88v1.39h.68v.82h-.68Z"/><path class="cls-1" d="M248.09,186.33l1,2.17,1.07-2.52,1.08,2.52.98-2.17h.98l-1.99,4.09-1.06-2.45-1.07,2.45-1.99-4.09h.99Z"/><path class="cls-1" d="M253.8,183.54h.88v3.11c.31-.28.66-.42,1.04-.42.43,0,.77.14,1.03.42.22.24.33.63.33,1.16v2.33h-.88v-2.25c0-.3-.05-.53-.16-.66s-.28-.21-.52-.21c-.31,0-.52.1-.65.29-.12.19-.18.52-.18.99v1.84h-.88v-6.6Z"/><path class="cls-1" d="M258.05,184.75c0-.15.06-.29.17-.4s.25-.17.4-.17.29.06.41.17c.11.11.17.24.17.4s-.06.29-.17.41c-.11.11-.24.17-.4.17s-.29-.06-.41-.17-.17-.25-.17-.41ZM259.07,186.33v3.8h-.88v-3.8h.88Z"/><path class="cls-1" d="M263.14,186.5v1.17c-.2-.24-.38-.41-.54-.5-.16-.09-.34-.14-.55-.14-.33,0-.61.12-.82.35s-.33.52-.33.87.11.65.32.88c.21.23.49.34.82.34.21,0,.4-.05.56-.14.16-.09.34-.26.55-.52v1.16c-.36.19-.71.28-1.07.28-.59,0-1.08-.19-1.48-.57-.4-.38-.59-.86-.59-1.43s.2-1.05.6-1.44.89-.59,1.48-.59c.38,0,.73.09,1.06.27Z"/><path class="cls-1" d="M264.2,183.54h.88v3.11c.31-.28.66-.42,1.04-.42.43,0,.77.14,1.03.42.22.24.33.63.33,1.16v2.33h-.88v-2.25c0-.3-.05-.53-.16-.66s-.28-.21-.52-.21c-.31,0-.52.1-.65.29-.12.19-.18.52-.18.99v1.84h-.88v-6.6Z"/><path class="cls-1" d="M86.22,196.58l-.73.39c-.11-.23-.26-.35-.43-.35-.08,0-.15.03-.21.08s-.09.12-.09.21c0,.15.17.29.51.43.47.2.78.39.94.55s.24.4.24.68c0,.37-.14.67-.41.92-.26.23-.58.35-.95.35-.64,0-1.09-.31-1.36-.93l.75-.35c.1.18.18.3.24.35.11.1.23.15.38.15.3,0,.45-.14.45-.41,0-.16-.11-.3-.34-.44-.09-.04-.18-.09-.27-.13s-.18-.08-.27-.13c-.26-.12-.44-.25-.54-.38-.13-.16-.2-.36-.2-.61,0-.33.11-.6.34-.82.23-.22.51-.32.84-.32.49,0,.85.25,1.09.75Z"/><path class="cls-1" d="M90.72,198.04h-2.73c.02.31.12.56.3.75.18.18.41.27.69.27.22,0,.4-.05.54-.16.14-.1.3-.3.48-.58l.74.41c-.11.2-.24.36-.36.5s-.26.25-.41.34-.3.16-.47.2-.35.06-.55.06c-.57,0-1.02-.18-1.37-.55-.34-.37-.52-.85-.52-1.46s.17-1.09.5-1.46c.34-.37.78-.55,1.34-.55s1,.18,1.33.54c.32.35.48.85.48,1.47v.21ZM89.82,197.32c-.12-.47-.42-.7-.89-.7-.11,0-.21.02-.3.05s-.18.08-.26.14-.14.13-.2.22-.1.18-.12.29h1.77Z"/><path class="cls-1" d="M95.15,198.04h-2.73c.02.31.12.56.3.75.18.18.41.27.69.27.22,0,.4-.05.54-.16.14-.1.3-.3.48-.58l.74.41c-.11.2-.24.36-.36.5s-.26.25-.41.34-.3.16-.47.2-.35.06-.55.06c-.57,0-1.02-.18-1.37-.55-.34-.37-.52-.85-.52-1.46s.17-1.09.5-1.46c.34-.37.78-.55,1.34-.55s1,.18,1.33.54c.32.35.48.85.48,1.47v.21ZM94.25,197.32c-.12-.47-.42-.7-.89-.7-.11,0-.21.02-.3.05s-.18.08-.26.14-.14.13-.2.22-.1.18-.12.29h1.77Z"/><path class="cls-1" d="M96.11,195.93h.88v.35c.17-.18.31-.3.43-.36.13-.06.29-.1.48-.1.43,0,.77.19,1.02.56.28-.38.65-.56,1.12-.56.86,0,1.29.52,1.29,1.56v2.35h-.88v-2.11c0-.36-.04-.62-.13-.77-.09-.15-.24-.23-.45-.23-.24,0-.42.09-.53.27s-.17.48-.17.88v1.96h-.88v-2.1c0-.68-.2-1.02-.59-1.02-.25,0-.43.09-.54.28s-.17.48-.17.88v1.96h-.88v-3.8Z"/><path class="cls-1" d="M104.65,196.58l-.73.39c-.11-.23-.26-.35-.43-.35-.08,0-.15.03-.21.08s-.09.12-.09.21c0,.15.17.29.51.43.47.2.78.39.94.55s.24.4.24.68c0,.37-.14.67-.41.92-.26.23-.58.35-.95.35-.64,0-1.09-.31-1.36-.93l.75-.35c.1.18.18.3.24.35.11.1.23.15.38.15.3,0,.45-.14.45-.41,0-.16-.11-.3-.34-.44-.09-.04-.18-.09-.27-.13s-.18-.08-.27-.13c-.26-.12-.44-.25-.54-.38-.13-.16-.2-.36-.2-.61,0-.33.11-.6.34-.82.23-.22.51-.32.84-.32.49,0,.85.25,1.09.75Z"/><path class="cls-1" d="M111.11,196.1v1.17c-.2-.24-.38-.41-.54-.5-.16-.09-.34-.14-.55-.14-.33,0-.61.12-.82.35s-.33.52-.33.87.11.65.32.88c.21.23.49.34.82.34.21,0,.4-.05.56-.14.16-.09.34-.26.55-.52v1.16c-.36.19-.71.28-1.07.28-.59,0-1.08-.19-1.48-.57-.4-.38-.59-.86-.59-1.43s.2-1.05.6-1.44.89-.59,1.48-.59c.38,0,.73.09,1.06.27Z"/><path class="cls-1" d="M112.84,193.14v6.6h-.88v-6.6h.88Z"/><path class="cls-1" d="M117.42,198.04h-2.73c.02.31.12.56.3.75.18.18.41.27.69.27.22,0,.4-.05.54-.16.14-.1.3-.3.48-.58l.74.41c-.11.2-.24.36-.36.5s-.26.25-.41.34-.3.16-.47.2-.35.06-.55.06c-.57,0-1.02-.18-1.37-.55-.34-.37-.52-.85-.52-1.46s.17-1.09.5-1.46c.34-.37.78-.55,1.34-.55s1,.18,1.33.54c.32.35.48.85.48,1.47v.21ZM116.52,197.32c-.12-.47-.42-.7-.89-.7-.11,0-.21.02-.3.05s-.18.08-.26.14-.14.13-.2.22-.1.18-.12.29h1.77Z"/><path class="cls-1" d="M121.19,195.93h.88v3.8h-.88v-.4c-.36.34-.75.51-1.17.51-.53,0-.96-.19-1.3-.57-.34-.39-.51-.87-.51-1.45s.17-1.05.51-1.43.77-.57,1.28-.57c.44,0,.84.18,1.19.55v-.44ZM119.1,197.82c0,.36.1.66.29.89.2.23.45.35.76.35.33,0,.59-.11.79-.34.2-.23.3-.53.3-.88s-.1-.65-.3-.88c-.2-.23-.46-.34-.78-.34-.3,0-.55.11-.76.34-.2.23-.3.52-.3.86Z"/><path class="cls-1" d="M123.18,195.93h.88v.34c.16-.17.3-.29.43-.35.13-.06.28-.1.45-.1.23,0,.47.08.73.23l-.4.8c-.17-.12-.33-.18-.49-.18-.48,0-.72.36-.72,1.09v1.97h-.88v-3.8Z"/><path class="cls-1" d="M125.88,199.3c0-.15.05-.27.16-.38s.23-.16.38-.16.28.05.38.16.16.23.16.38-.05.28-.16.39-.23.16-.38.16-.28-.05-.39-.16-.16-.23-.16-.39Z"/><path class="cls-1" d="M134.39,198.27h-2.58l-.67,1.46h-.98l2.98-6.41,2.88,6.41h-1l-.63-1.46ZM134.02,197.42l-.89-2.05-.94,2.05h1.83Z"/><path class="cls-1" d="M139.41,193.14h.88v6.6h-.88v-.4c-.35.34-.74.51-1.18.51-.52,0-.95-.19-1.3-.57-.34-.39-.51-.87-.51-1.45s.17-1.04.51-1.42c.34-.38.76-.57,1.28-.57.45,0,.84.18,1.2.55v-3.23ZM137.32,197.82c0,.36.1.66.29.89.2.23.45.35.76.35.33,0,.59-.11.79-.34.2-.23.3-.53.3-.88s-.1-.65-.3-.88c-.2-.23-.46-.34-.78-.34-.3,0-.55.11-.76.34-.2.23-.3.52-.3.86Z"/><path class="cls-1" d="M141.27,194.35c0-.15.06-.29.17-.4s.25-.17.4-.17.29.06.41.17c.11.11.17.24.17.4s-.06.29-.17.41c-.11.11-.24.17-.4.17s-.29-.06-.41-.17-.17-.25-.17-.41ZM142.28,195.93v5.88h-.88v-5.88h.88Z"/><path class="cls-1" d="M144.27,195.93v2.18c0,.63.25.95.75.95s.75-.31.75-.95v-2.18h.88v2.2c0,.3-.04.57-.11.79-.07.2-.2.38-.38.54-.3.26-.67.39-1.13.39s-.83-.13-1.13-.39c-.18-.16-.31-.34-.39-.54-.07-.18-.11-.44-.11-.79v-2.2h.88Z"/><path class="cls-1" d="M149.96,196.58l-.73.39c-.11-.23-.26-.35-.43-.35-.08,0-.15.03-.21.08s-.09.12-.09.21c0,.15.17.29.51.43.47.2.78.39.94.55s.24.4.24.68c0,.37-.14.67-.41.92-.26.23-.58.35-.95.35-.64,0-1.09-.31-1.36-.93l.75-.35c.1.18.18.3.24.35.11.1.23.15.38.15.3,0,.45-.14.45-.41,0-.16-.11-.3-.34-.44-.09-.04-.18-.09-.27-.13s-.18-.08-.27-.13c-.26-.12-.44-.25-.54-.38-.13-.16-.2-.36-.2-.61,0-.33.11-.6.34-.82.23-.22.51-.32.84-.32.49,0,.85.25,1.09.75Z"/><path class="cls-1" d="M151.9,196.75v2.98h-.88v-2.98h-.38v-.82h.38v-1.39h.88v1.39h.68v.82h-.68Z"/><path class="cls-1" d="M156.53,195.93v2.18c0,.63.25.95.75.95s.75-.31.75-.95v-2.18h.88v2.2c0,.3-.04.57-.11.79-.07.2-.2.38-.38.54-.3.26-.67.39-1.13.39s-.83-.13-1.13-.39c-.18-.16-.31-.34-.39-.54-.07-.18-.11-.44-.11-.79v-2.2h.88Z"/><path class="cls-1" d="M160.01,195.93h.88v.35c.31-.3.65-.46,1.04-.46.44,0,.79.14,1.04.42.21.24.32.62.32,1.16v2.33h-.88v-2.12c0-.38-.05-.63-.16-.78-.1-.15-.29-.22-.55-.22-.29,0-.5.1-.62.29-.12.19-.18.52-.18,1v1.84h-.88v-3.8Z"/><path class="cls-1" d="M165.3,196.75v2.98h-.88v-2.98h-.38v-.82h.38v-1.39h.88v1.39h.68v.82h-.68Z"/><path class="cls-1" d="M166.45,194.35c0-.15.06-.29.17-.4s.25-.17.4-.17.29.06.41.17c.11.11.17.24.17.4s-.06.29-.17.41c-.11.11-.24.17-.4.17s-.29-.06-.41-.17-.17-.25-.17-.41ZM167.46,195.93v3.8h-.88v-3.8h.88Z"/><path class="cls-1" d="M169.46,193.14v6.6h-.88v-6.6h.88Z"/><path class="cls-1" d="M173.92,195.93v2.18c0,.63.25.95.75.95s.75-.31.75-.95v-2.18h.88v2.2c0,.3-.04.57-.11.79-.07.2-.2.38-.38.54-.3.26-.67.39-1.13.39s-.83-.13-1.13-.39c-.18-.16-.31-.34-.39-.54-.07-.18-.11-.44-.11-.79v-2.2h.88Z"/><path class="cls-1" d="M177.4,195.93h.88v.35c.31-.3.65-.46,1.04-.46.44,0,.79.14,1.04.42.21.24.32.62.32,1.16v2.33h-.88v-2.12c0-.38-.05-.63-.16-.78-.1-.15-.29-.22-.55-.22-.29,0-.5.1-.62.29-.12.19-.18.52-.18,1v1.84h-.88v-3.8Z"/><path class="cls-1" d="M184.75,196.1v1.17c-.2-.24-.38-.41-.54-.5-.16-.09-.34-.14-.55-.14-.33,0-.61.12-.82.35s-.33.52-.33.87.11.65.32.88c.21.23.49.34.82.34.21,0,.4-.05.56-.14.16-.09.34-.26.55-.52v1.16c-.36.19-.71.28-1.07.28-.59,0-1.08-.19-1.48-.57-.4-.38-.59-.86-.59-1.43s.2-1.05.6-1.44.89-.59,1.48-.59c.38,0,.73.09,1.06.27Z"/><path class="cls-1" d="M186.48,193.14v6.6h-.88v-6.6h.88Z"/><path class="cls-1" d="M191.05,198.04h-2.73c.02.31.12.56.3.75.18.18.41.27.69.27.22,0,.4-.05.54-.16.14-.1.3-.3.48-.58l.74.41c-.11.2-.24.36-.36.5s-.26.25-.41.34-.3.16-.47.2-.35.06-.55.06c-.57,0-1.02-.18-1.37-.55-.34-.37-.52-.85-.52-1.46s.17-1.09.5-1.46c.34-.37.78-.55,1.34-.55s1,.18,1.33.54c.32.35.48.85.48,1.47v.21ZM190.15,197.32c-.12-.47-.42-.7-.89-.7-.11,0-.21.02-.3.05s-.18.08-.26.14-.14.13-.2.22-.1.18-.12.29h1.77Z"/><path class="cls-1" d="M194.82,195.93h.88v3.8h-.88v-.4c-.36.34-.75.51-1.17.51-.53,0-.96-.19-1.3-.57-.34-.39-.51-.87-.51-1.45s.17-1.05.51-1.43.77-.57,1.28-.57c.44,0,.84.18,1.19.55v-.44ZM192.73,197.82c0,.36.1.66.29.89.2.23.45.35.76.35.33,0,.59-.11.79-.34.2-.23.3-.53.3-.88s-.1-.65-.3-.88c-.2-.23-.46-.34-.78-.34-.3,0-.55.11-.76.34-.2.23-.3.52-.3.86Z"/><path class="cls-1" d="M196.81,195.93h.88v.34c.16-.17.3-.29.43-.35.13-.06.28-.1.45-.1.23,0,.47.08.73.23l-.4.8c-.17-.12-.33-.18-.49-.18-.48,0-.72.36-.72,1.09v1.97h-.88v-3.8Z"/><path class="cls-1" d="M205.08,195.93h.88v3.8h-.88v-.4c-.36.34-.75.51-1.17.51-.53,0-.96-.19-1.3-.57-.34-.39-.51-.87-.51-1.45s.17-1.05.51-1.43.77-.57,1.28-.57c.44,0,.84.18,1.19.55v-.44ZM202.99,197.82c0,.36.1.66.29.89.2.23.45.35.76.35.33,0,.59-.11.79-.34.2-.23.3-.53.3-.88s-.1-.65-.3-.88c-.2-.23-.46-.34-.78-.34-.3,0-.55.11-.76.34-.2.23-.3.52-.3.86Z"/><path class="cls-1" d="M207.07,195.93h.88v.35c.31-.3.65-.46,1.04-.46.44,0,.79.14,1.04.42.21.24.32.62.32,1.16v2.33h-.88v-2.12c0-.38-.05-.63-.16-.78-.1-.15-.29-.22-.55-.22-.29,0-.5.1-.62.29-.12.19-.18.52-.18,1v1.84h-.88v-3.8Z"/><path class="cls-1" d="M214.26,193.14h.88v6.6h-.88v-.4c-.35.34-.74.51-1.18.51-.52,0-.95-.19-1.3-.57-.34-.39-.51-.87-.51-1.45s.17-1.04.51-1.42c.34-.38.76-.57,1.28-.57.45,0,.84.18,1.2.55v-3.23ZM212.18,197.82c0,.36.1.66.29.89.2.23.45.35.76.35.33,0,.59-.11.79-.34.2-.23.3-.53.3-.88s-.1-.65-.3-.88c-.2-.23-.46-.34-.78-.34-.3,0-.55.11-.76.34-.2.23-.3.52-.3.86Z"/><path class="cls-1" d="M218.72,195.93h.88v.34c.16-.17.3-.29.43-.35.13-.06.28-.1.45-.1.23,0,.47.08.73.23l-.4.8c-.17-.12-.33-.18-.49-.18-.48,0-.72.36-.72,1.09v1.97h-.88v-3.8Z"/><path class="cls-1" d="M225.12,198.04h-2.73c.02.31.12.56.3.75.18.18.41.27.69.27.22,0,.4-.05.54-.16.14-.1.3-.3.48-.58l.74.41c-.11.2-.24.36-.36.5s-.26.25-.41.34-.3.16-.47.2-.35.06-.55.06c-.57,0-1.02-.18-1.37-.55-.34-.37-.52-.85-.52-1.46s.17-1.09.5-1.46c.34-.37.78-.55,1.34-.55s1,.18,1.33.54c.32.35.48.85.48,1.47v.21ZM224.22,197.32c-.12-.47-.42-.7-.89-.7-.11,0-.21.02-.3.05s-.18.08-.26.14-.14.13-.2.22-.1.18-.12.29h1.77Z"/><path class="cls-1" d="M229.05,196.1v1.17c-.2-.24-.38-.41-.54-.5-.16-.09-.34-.14-.55-.14-.33,0-.61.12-.82.35s-.33.52-.33.87.11.65.32.88c.21.23.49.34.82.34.21,0,.4-.05.56-.14.16-.09.34-.26.55-.52v1.16c-.36.19-.71.28-1.07.28-.59,0-1.08-.19-1.48-.57-.4-.38-.59-.86-.59-1.43s.2-1.05.6-1.44.89-.59,1.48-.59c.38,0,.73.09,1.06.27Z"/><path class="cls-1" d="M229.72,197.81c0-.55.2-1.02.59-1.4s.87-.58,1.44-.58,1.05.19,1.45.58c.39.39.59.86.59,1.43s-.2,1.05-.59,1.43c-.4.38-.88.57-1.46.57s-1.05-.2-1.43-.59c-.39-.39-.58-.87-.58-1.45ZM230.62,197.82c0,.38.1.68.3.9.21.22.48.34.82.34s.62-.11.82-.33.31-.52.31-.89-.1-.67-.31-.89c-.21-.22-.48-.34-.82-.34s-.61.11-.82.34-.31.51-.31.87Z"/><path class="cls-1" d="M234.71,195.93h.88v.35c.31-.3.65-.46,1.04-.46.44,0,.79.14,1.04.42.21.24.32.62.32,1.16v2.33h-.88v-2.12c0-.38-.05-.63-.16-.78-.1-.15-.29-.22-.55-.22-.29,0-.5.1-.62.29-.12.19-.18.52-.18,1v1.84h-.88v-3.8Z"/><path class="cls-1" d="M241.3,196.58l-.73.39c-.11-.23-.26-.35-.43-.35-.08,0-.15.03-.21.08s-.09.12-.09.21c0,.15.17.29.51.43.47.2.78.39.94.55s.24.4.24.68c0,.37-.14.67-.41.92-.26.23-.58.35-.95.35-.64,0-1.09-.31-1.36-.93l.75-.35c.1.18.18.3.24.35.11.1.23.15.38.15.3,0,.45-.14.45-.41,0-.16-.11-.3-.34-.44-.09-.04-.18-.09-.27-.13s-.18-.08-.27-.13c-.26-.12-.44-.25-.54-.38-.13-.16-.2-.36-.2-.61,0-.33.11-.6.34-.82.23-.22.51-.32.84-.32.49,0,.85.25,1.09.75Z"/><path class="cls-1" d="M242.21,194.35c0-.15.06-.29.17-.4s.25-.17.4-.17.29.06.41.17c.11.11.17.24.17.4s-.06.29-.17.41c-.11.11-.24.17-.4.17s-.29-.06-.41-.17-.17-.25-.17-.41ZM243.22,195.93v3.8h-.88v-3.8h.88Z"/><path class="cls-1" d="M247.14,193.14h.88v6.6h-.88v-.4c-.35.34-.74.51-1.18.51-.52,0-.95-.19-1.3-.57-.34-.39-.51-.87-.51-1.45s.17-1.04.51-1.42c.34-.38.76-.57,1.28-.57.45,0,.84.18,1.2.55v-3.23ZM245.05,197.82c0,.36.1.66.29.89.2.23.45.35.76.35.33,0,.59-.11.79-.34.2-.23.3-.53.3-.88s-.1-.65-.3-.88c-.2-.23-.46-.34-.78-.34-.3,0-.55.11-.76.34-.2.23-.3.52-.3.86Z"/><path class="cls-1" d="M252.59,198.04h-2.73c.02.31.12.56.3.75.18.18.41.27.69.27.22,0,.4-.05.54-.16.14-.1.3-.3.48-.58l.74.41c-.11.2-.24.36-.36.5s-.26.25-.41.34-.3.16-.47.2-.35.06-.55.06c-.57,0-1.02-.18-1.37-.55-.34-.37-.52-.85-.52-1.46s.17-1.09.5-1.46c.34-.37.78-.55,1.34-.55s1,.18,1.33.54c.32.35.48.85.48,1.47v.21ZM251.69,197.32c-.12-.47-.42-.7-.89-.7-.11,0-.21.02-.3.05s-.18.08-.26.14-.14.13-.2.22-.1.18-.12.29h1.77Z"/><path class="cls-1" d="M253.55,195.93h.88v.34c.16-.17.3-.29.43-.35.13-.06.28-.1.45-.1.23,0,.47.08.73.23l-.4.8c-.17-.12-.33-.18-.49-.18-.48,0-.72.36-.72,1.09v1.97h-.88v-3.8Z"/><path class="cls-1" d="M256.26,199.3c0-.15.05-.27.16-.38s.23-.16.38-.16.28.05.38.16.16.23.16.38-.05.28-.16.39-.23.16-.38.16-.28-.05-.39-.16-.16-.23-.16-.39Z"/></svg>