<?xml version="1.0" encoding="UTF-8"?><svg id="Layer_1" xmlns="http://www.w3.org/2000/svg" viewBox="0 0 289 217"><defs><style>.cls-1{fill:#231f20;stroke-width:0px;}.cls-2{fill:#fff;stroke:#231f20;stroke-miterlimit:10;}</style></defs><path class="cls-2" d="M18.58,216.5c-9.98,0-18.08-8.09-18.08-18.08V18.58C.5,8.59,8.59.5,18.58.5h251.84c9.98,0,18.08,8.09,18.08,18.08v179.84c0,9.98-8.09,18.08-18.08,18.08H18.58ZM270.5,153.76V36.24c0-9.8-7.94-17.74-17.74-17.74H36.24c-9.8,0-17.74,7.94-17.74,17.74v117.52c0,9.8,7.94,17.74,17.74,17.74h216.52c9.8,0,17.74-7.94,17.74-17.74Z"/><path class="cls-1" d="M22.65,186.54l2.8,3.86h-1.67l-2.58-3.7h-.25v3.7h-1.37v-9.05h1.6c1.2,0,2.06.22,2.59.67.59.5.88,1.16.88,1.98,0,.64-.18,1.19-.55,1.65s-.85.76-1.45.88ZM20.95,185.5h.43c1.29,0,1.94-.49,1.94-1.48,0-.93-.63-1.39-1.89-1.39h-.49v2.87Z"/><path class="cls-1" d="M31.56,187.85h-4.09c.04.47.19.84.46,1.12.27.27.62.41,1.04.41.33,0,.6-.08.81-.23.21-.16.45-.45.72-.87l1.11.62c-.17.29-.35.54-.54.75s-.4.38-.62.52-.46.23-.71.3-.53.09-.83.09c-.85,0-1.54-.27-2.05-.82-.52-.55-.77-1.28-.77-2.19s.25-1.63.75-2.19c.5-.55,1.17-.83,2-.83s1.5.27,1.99.8c.48.53.73,1.27.73,2.21v.31ZM30.21,186.78c-.18-.7-.63-1.05-1.33-1.05-.16,0-.31.02-.45.07s-.27.12-.38.21-.21.2-.3.33-.14.28-.19.44h2.65Z"/><path class="cls-1" d="M36.32,185.66l-1.09.58c-.17-.35-.38-.53-.64-.53-.12,0-.22.04-.31.12s-.13.18-.13.31c0,.22.25.44.76.65.7.3,1.17.58,1.41.83s.36.6.36,1.03c0,.55-.2,1.01-.61,1.38-.39.35-.87.53-1.43.53-.96,0-1.63-.47-2.03-1.4l1.12-.52c.16.27.28.45.36.52.16.15.35.22.57.22.45,0,.67-.2.67-.61,0-.23-.17-.45-.52-.66-.13-.07-.27-.13-.4-.19s-.27-.13-.4-.19c-.38-.19-.65-.38-.81-.56-.2-.24-.3-.54-.3-.92,0-.5.17-.91.51-1.23.35-.32.77-.49,1.27-.49.73,0,1.27.38,1.63,1.13Z"/><path class="cls-1" d="M37.67,182.32c0-.23.08-.43.25-.6s.37-.25.6-.25.44.08.61.25c.17.16.25.37.25.6s-.08.44-.25.61c-.16.17-.37.25-.6.25s-.44-.08-.61-.25-.25-.37-.25-.62ZM39.19,184.69v5.71h-1.32v-5.71h1.32Z"/><path class="cls-1" d="M44.18,185.66l-1.09.58c-.17-.35-.38-.53-.64-.53-.12,0-.22.04-.31.12s-.13.18-.13.31c0,.22.25.44.76.65.7.3,1.17.58,1.41.83s.36.6.36,1.03c0,.55-.2,1.01-.61,1.38-.39.35-.87.53-1.43.53-.96,0-1.63-.47-2.03-1.4l1.12-.52c.16.27.28.45.36.52.16.15.35.22.57.22.45,0,.67-.2.67-.61,0-.23-.17-.45-.52-.66-.13-.07-.27-.13-.4-.19s-.27-.13-.4-.19c-.38-.19-.65-.38-.81-.56-.2-.24-.3-.54-.3-.92,0-.5.17-.91.51-1.23.35-.32.77-.49,1.27-.49.73,0,1.27.38,1.63,1.13Z"/><path class="cls-1" d="M47.09,185.92v4.48h-1.32v-4.48h-.56v-1.23h.56v-2.09h1.32v2.09h1.03v1.23h-1.03Z"/><path class="cls-1" d="M54.07,185.92v4.48h-1.32v-4.48h-.56v-1.23h.56v-2.09h1.32v2.09h1.03v1.23h-1.03Z"/><path class="cls-1" d="M56.23,180.5h1.32v4.66c.47-.42.99-.63,1.55-.63.64,0,1.16.21,1.55.63.33.36.49.94.49,1.74v3.5h-1.32v-3.38c0-.46-.08-.79-.24-.99s-.42-.31-.78-.31c-.46,0-.79.14-.97.43-.18.29-.28.79-.28,1.49v2.76h-1.32v-9.9Z"/><path class="cls-1" d="M68.01,187.85h-4.09c.04.47.19.84.46,1.12.27.27.62.41,1.04.41.33,0,.6-.08.81-.23.21-.16.45-.45.72-.87l1.11.62c-.17.29-.35.54-.54.75s-.4.38-.62.52-.46.23-.71.3-.53.09-.83.09c-.85,0-1.54-.27-2.05-.82-.52-.55-.77-1.28-.77-2.19s.25-1.63.75-2.19c.5-.55,1.17-.83,2-.83s1.5.27,1.99.8c.48.53.73,1.27.73,2.21v.31ZM66.66,186.78c-.18-.7-.63-1.05-1.33-1.05-.16,0-.31.02-.45.07s-.27.12-.38.21-.21.2-.3.33-.14.28-.19.44h2.65Z"/><path class="cls-1" d="M74.52,185.92v4.48h-1.32v-4.48h-.47v-1.23h.47v-2.2c0-.72.12-1.23.38-1.52.34-.41.84-.62,1.5-.62.23,0,.53.07.88.21v1.35l-.13-.07c-.29-.14-.52-.22-.7-.22-.23,0-.39.08-.47.25-.08.16-.12.48-.12.95v1.88h1.44v1.23h-1.44Z"/><path class="cls-1" d="M81.11,184.69h1.32v5.71h-1.32v-.6c-.54.51-1.13.76-1.75.76-.79,0-1.44-.29-1.96-.86-.51-.58-.77-1.31-.77-2.18s.26-1.57.77-2.14,1.15-.86,1.92-.86c.66,0,1.26.27,1.79.82v-.66ZM77.98,187.53c0,.55.15.99.44,1.34.3.35.68.52,1.14.52.49,0,.88-.17,1.18-.5.3-.35.45-.79.45-1.32s-.15-.98-.45-1.32c-.3-.34-.69-.51-1.17-.51-.45,0-.83.17-1.14.52-.3.35-.45.78-.45,1.29Z"/><path class="cls-1" d="M84.1,184.69h1.32v.53c.46-.46.98-.69,1.56-.69.66,0,1.18.21,1.55.63.32.36.48.94.48,1.74v3.5h-1.32v-3.19c0-.56-.08-.95-.23-1.17-.15-.22-.43-.33-.83-.33-.44,0-.75.14-.93.43-.18.29-.27.78-.27,1.49v2.75h-1.32v-5.71Z"/><path class="cls-1" d="M92.04,185.92v4.48h-1.32v-4.48h-.56v-1.23h.56v-2.09h1.32v2.09h1.03v1.23h-1.03Z"/><path class="cls-1" d="M98.27,184.69h1.32v5.71h-1.32v-.6c-.54.51-1.13.76-1.75.76-.79,0-1.44-.29-1.96-.86-.51-.58-.77-1.31-.77-2.18s.26-1.57.77-2.14,1.15-.86,1.92-.86c.66,0,1.26.27,1.79.82v-.66ZM95.14,187.53c0,.55.15.99.44,1.34.3.35.68.52,1.14.52.49,0,.88-.17,1.18-.5.3-.35.45-.79.45-1.32s-.15-.98-.45-1.32c-.3-.34-.69-.51-1.17-.51-.45,0-.83.17-1.14.52-.3.35-.45.78-.45,1.29Z"/><path class="cls-1" d="M104.57,185.66l-1.09.58c-.17-.35-.38-.53-.64-.53-.12,0-.22.04-.31.12s-.13.18-.13.31c0,.22.25.44.76.65.7.3,1.17.58,1.41.83s.36.6.36,1.03c0,.55-.2,1.01-.61,1.38-.39.35-.87.53-1.43.53-.96,0-1.63-.47-2.03-1.4l1.12-.52c.16.27.28.45.36.52.16.15.35.22.57.22.45,0,.67-.2.67-.61,0-.23-.17-.45-.52-.66-.13-.07-.27-.13-.4-.19s-.27-.13-.4-.19c-.38-.19-.65-.38-.81-.56-.2-.24-.3-.54-.3-.92,0-.5.17-.91.51-1.23.35-.32.77-.49,1.27-.49.73,0,1.27.38,1.63,1.13Z"/><path class="cls-1" d="M107.93,189.34l-2.57-4.65h1.53l1.75,3.28,1.63-3.28h1.49l-4.55,8.81h-1.51l2.23-4.17Z"/><path class="cls-1" d="M116.08,187.5c0-.82.29-1.53.88-2.1s1.31-.87,2.16-.87,1.57.29,2.17.87c.59.58.88,1.3.88,2.14s-.29,1.57-.88,2.15c-.59.57-1.32.86-2.19.86s-1.57-.29-2.15-.88c-.58-.58-.87-1.3-.87-2.18ZM117.43,187.53c0,.57.15,1.02.46,1.35.31.34.72.5,1.24.5s.93-.17,1.24-.5.46-.78.46-1.33-.15-1-.46-1.33c-.31-.34-.72-.5-1.24-.5s-.91.17-1.22.5-.47.77-.47,1.3Z"/><path class="cls-1" d="M124.93,185.92v4.48h-1.32v-4.48h-.47v-1.23h.47v-2.2c0-.72.12-1.23.38-1.52.34-.41.84-.62,1.5-.62.23,0,.53.07.88.21v1.35l-.13-.07c-.29-.14-.52-.22-.7-.22-.23,0-.39.08-.47.25-.08.16-.12.48-.12.95v1.88h1.44v1.23h-1.44Z"/><path class="cls-1" d="M135.04,184.69h1.32v5.71h-1.32v-.6c-.54.51-1.13.76-1.75.76-.79,0-1.44-.29-1.96-.86-.51-.58-.77-1.31-.77-2.18s.26-1.57.77-2.14,1.15-.86,1.92-.86c.66,0,1.26.27,1.79.82v-.66ZM131.91,187.53c0,.55.15.99.44,1.34.3.35.68.52,1.14.52.49,0,.88-.17,1.18-.5.3-.35.45-.79.45-1.32s-.15-.98-.45-1.32c-.3-.34-.69-.51-1.17-.51-.45,0-.83.17-1.14.52-.3.35-.45.78-.45,1.29Z"/><path class="cls-1" d="M139.34,180.5v9.9h-1.32v-9.9h1.32Z"/><path class="cls-1" d="M142.33,180.5v9.9h-1.32v-9.9h1.32Z"/><path class="cls-1" d="M151.02,185.66l-1.09.58c-.17-.35-.38-.53-.64-.53-.12,0-.22.04-.31.12s-.13.18-.13.31c0,.22.25.44.76.65.7.3,1.17.58,1.41.83s.36.6.36,1.03c0,.55-.2,1.01-.61,1.38-.39.35-.87.53-1.43.53-.96,0-1.63-.47-2.03-1.4l1.12-.52c.16.27.28.45.36.52.16.15.35.22.57.22.45,0,.67-.2.67-.61,0-.23-.17-.45-.52-.66-.13-.07-.27-.13-.4-.19s-.27-.13-.4-.19c-.38-.19-.65-.38-.81-.56-.2-.24-.3-.54-.3-.92,0-.5.17-.91.51-1.23.35-.32.77-.49,1.27-.49.73,0,1.27.38,1.63,1.13Z"/><path class="cls-1" d="M157.77,187.85h-4.09c.04.47.19.84.46,1.12.27.27.62.41,1.04.41.33,0,.6-.08.81-.23.21-.16.45-.45.72-.87l1.11.62c-.17.29-.35.54-.54.75s-.4.38-.62.52-.46.23-.71.3-.53.09-.83.09c-.85,0-1.54-.27-2.05-.82-.52-.55-.77-1.28-.77-2.19s.25-1.63.75-2.19c.5-.55,1.17-.83,2-.83s1.5.27,1.99.8c.48.53.73,1.27.73,2.21v.31ZM156.42,186.78c-.18-.7-.63-1.05-1.33-1.05-.16,0-.31.02-.45.07s-.27.12-.38.21-.21.2-.3.33-.14.28-.19.44h2.65Z"/><path class="cls-1" d="M164.41,187.85h-4.09c.04.47.19.84.46,1.12.27.27.62.41,1.04.41.33,0,.6-.08.81-.23.21-.16.45-.45.72-.87l1.11.62c-.17.29-.35.54-.54.75s-.4.38-.62.52-.46.23-.71.3-.53.09-.83.09c-.85,0-1.54-.27-2.05-.82-.52-.55-.77-1.28-.77-2.19s.25-1.63.75-2.19c.5-.55,1.17-.83,2-.83s1.5.27,1.99.8c.48.53.73,1.27.73,2.21v.31ZM163.06,186.78c-.18-.7-.63-1.05-1.33-1.05-.16,0-.31.02-.45.07s-.27.12-.38.21-.21.2-.3.33-.14.28-.19.44h2.65Z"/><path class="cls-1" d="M165.65,182.32c0-.23.08-.43.25-.6s.37-.25.6-.25.44.08.61.25c.17.16.25.37.25.6s-.08.44-.25.61c-.16.17-.37.25-.6.25s-.44-.08-.61-.25-.25-.37-.25-.62ZM167.17,184.69v5.71h-1.32v-5.71h1.32Z"/><path class="cls-1" d="M168.84,184.69h1.32v.53c.46-.46.98-.69,1.56-.69.66,0,1.18.21,1.55.63.32.36.48.94.48,1.74v3.5h-1.32v-3.19c0-.56-.08-.95-.23-1.17-.15-.22-.43-.33-.83-.33-.44,0-.75.14-.93.43-.18.29-.27.78-.27,1.49v2.75h-1.32v-5.71Z"/><path class="cls-1" d="M180.94,190.26c0,.27,0,.51-.03.71s-.04.39-.07.54c-.09.43-.28.8-.55,1.11-.52.59-1.22.89-2.13.89-.76,0-1.39-.21-1.88-.62-.51-.42-.8-1.01-.88-1.75h1.32c.05.28.13.5.25.65.27.36.67.53,1.2.53.96,0,1.45-.59,1.45-1.78v-.8c-.52.54-1.13.8-1.81.8-.78,0-1.41-.28-1.91-.84-.5-.57-.75-1.28-.75-2.14s.23-1.54.7-2.12c.5-.62,1.16-.93,1.98-.93.72,0,1.32.27,1.79.8v-.64h1.32v5.57ZM179.67,187.55c0-.55-.15-1-.45-1.33-.3-.34-.69-.51-1.15-.51-.5,0-.89.19-1.18.56-.26.33-.39.76-.39,1.29s.13.95.39,1.28c.29.36.68.54,1.18.54s.9-.18,1.2-.55c.27-.33.4-.76.4-1.28Z"/><path class="cls-1" d="M190.51,184.69h1.32v5.71h-1.32v-.6c-.54.51-1.13.76-1.75.76-.79,0-1.44-.29-1.96-.86-.51-.58-.77-1.31-.77-2.18s.26-1.57.77-2.14,1.15-.86,1.92-.86c.66,0,1.26.27,1.79.82v-.66ZM187.38,187.53c0,.55.15.99.44,1.34.3.35.68.52,1.14.52.49,0,.88-.17,1.18-.5.3-.35.45-.79.45-1.32s-.15-.98-.45-1.32c-.3-.34-.69-.51-1.17-.51-.45,0-.83.17-1.14.52-.3.35-.45.78-.45,1.29Z"/><path class="cls-1" d="M193.5,184.69h1.32v.53c.46-.46.98-.69,1.56-.69.66,0,1.18.21,1.55.63.32.36.48.94.48,1.74v3.5h-1.32v-3.19c0-.56-.08-.95-.23-1.17-.15-.22-.43-.33-.83-.33-.44,0-.75.14-.93.43-.18.29-.27.78-.27,1.49v2.75h-1.32v-5.71Z"/><path class="cls-1" d="M204.29,180.5h1.32v9.9h-1.32v-.6c-.52.51-1.11.76-1.76.76-.78,0-1.43-.29-1.95-.86-.51-.58-.77-1.31-.77-2.18s.26-1.56.77-2.13c.51-.57,1.15-.86,1.92-.86.67,0,1.27.27,1.79.82v-4.85ZM201.16,187.53c0,.55.15.99.44,1.34.3.35.68.52,1.14.52.49,0,.88-.17,1.18-.5.3-.35.45-.79.45-1.32s-.15-.98-.45-1.32c-.3-.34-.69-.51-1.17-.51-.45,0-.83.17-1.14.52-.3.35-.45.78-.45,1.29Z"/><path class="cls-1" d="M215.19,184.69h1.32v5.71h-1.32v-.6c-.54.51-1.13.76-1.75.76-.79,0-1.44-.29-1.96-.86-.51-.58-.77-1.31-.77-2.18s.26-1.57.77-2.14,1.15-.86,1.92-.86c.66,0,1.26.27,1.79.82v-.66ZM212.06,187.53c0,.55.15.99.44,1.34.3.35.68.52,1.14.52.49,0,.88-.17,1.18-.5.3-.35.45-.79.45-1.32s-.15-.98-.45-1.32c-.3-.34-.69-.51-1.17-.51-.45,0-.83.17-1.14.52-.3.35-.45.78-.45,1.29Z"/><path class="cls-1" d="M219.49,180.5v9.9h-1.32v-9.9h1.32Z"/><path class="cls-1" d="M222.48,180.5v9.9h-1.32v-9.9h1.32Z"/><path class="cls-1" d="M20.65,194.9v6.04l1.86-1.85h1.77l-2.48,2.4,2.66,3.31h-1.71l-1.89-2.41-.21.21v2.2h-1.32v-9.9h1.32Z"/><path class="cls-1" d="M25.31,199.09h1.32v.53c.46-.46.98-.69,1.56-.69.66,0,1.18.21,1.55.63.32.36.48.94.48,1.74v3.5h-1.32v-3.19c0-.56-.08-.95-.23-1.17-.15-.22-.43-.33-.83-.33-.44,0-.75.14-.93.43-.18.29-.27.78-.27,1.49v2.75h-1.32v-5.71Z"/><path class="cls-1" d="M31.62,201.9c0-.82.29-1.53.88-2.1s1.31-.87,2.16-.87,1.57.29,2.17.87c.59.58.88,1.3.88,2.14s-.29,1.57-.88,2.15c-.59.57-1.32.86-2.19.86s-1.57-.29-2.15-.88c-.58-.58-.87-1.3-.87-2.18ZM32.97,201.93c0,.57.15,1.02.46,1.35.31.34.72.5,1.24.5s.93-.17,1.24-.5.46-.78.46-1.33-.15-1-.46-1.33c-.31-.34-.72-.5-1.24-.5s-.91.17-1.22.5-.47.77-.47,1.3Z"/><path class="cls-1" d="M39.59,199.09l1.49,3.26,1.61-3.78,1.62,3.78,1.48-3.26h1.48l-2.99,6.13-1.59-3.67-1.61,3.67-2.98-6.13h1.48Z"/><path class="cls-1" d="M47.96,196.72c0-.23.08-.43.25-.6s.37-.25.6-.25.44.08.61.25c.17.16.25.37.25.6s-.08.44-.25.61c-.16.17-.37.25-.6.25s-.44-.08-.61-.25-.25-.37-.25-.62ZM49.48,199.09v5.71h-1.32v-5.71h1.32Z"/><path class="cls-1" d="M51.15,199.09h1.32v.53c.46-.46.98-.69,1.56-.69.66,0,1.18.21,1.55.63.32.36.48.94.48,1.74v3.5h-1.32v-3.19c0-.56-.08-.95-.23-1.17-.15-.22-.43-.33-.83-.33-.44,0-.75.14-.93.43-.18.29-.27.78-.27,1.49v2.75h-1.32v-5.71Z"/><path class="cls-1" d="M63.25,204.66c0,.27,0,.51-.03.71s-.04.39-.07.54c-.09.43-.28.8-.55,1.11-.52.59-1.22.89-2.13.89-.76,0-1.39-.21-1.88-.62-.51-.42-.8-1.01-.88-1.75h1.32c.05.28.13.5.25.65.27.36.67.53,1.2.53.96,0,1.45-.59,1.45-1.78v-.8c-.52.54-1.13.8-1.81.8-.78,0-1.41-.28-1.91-.84-.5-.57-.75-1.28-.75-2.14s.23-1.54.7-2.12c.5-.62,1.16-.93,1.98-.93.72,0,1.32.27,1.79.8v-.64h1.32v5.57ZM61.98,201.95c0-.55-.15-1-.45-1.33-.3-.34-.69-.51-1.15-.51-.5,0-.89.19-1.18.56-.26.33-.39.76-.39,1.29s.13.95.39,1.28c.29.36.68.54,1.18.54s.9-.18,1.2-.55c.27-.33.4-.76.4-1.28Z"/><path class="cls-1" d="M65.12,204.14c0-.22.08-.41.24-.57s.35-.24.57-.24.41.08.57.24.24.35.24.57-.08.42-.24.58-.35.23-.57.23-.42-.08-.58-.23-.23-.35-.23-.59Z"/><path class="cls-1" d="M72.57,204.8v-9.05h1.36c.61,0,1.09.05,1.45.14.36.09.67.25.92.47.25.23.46.52.6.86.15.35.23.7.23,1.05,0,.65-.25,1.2-.74,1.65.48.16.86.45,1.14.86.28.41.42.88.42,1.42,0,.71-.25,1.3-.75,1.79-.3.3-.64.51-1.01.63-.41.11-.92.17-1.54.17h-2.07ZM73.94,199.63h.43c.51,0,.88-.11,1.12-.34s.35-.56.35-.99-.12-.75-.36-.97-.59-.33-1.05-.33h-.48v2.63ZM73.94,203.51h.84c.62,0,1.07-.12,1.36-.36.3-.26.46-.59.46-1s-.15-.72-.44-.98c-.29-.26-.79-.39-1.53-.39h-.69v2.74Z"/><path class="cls-1" d="M83.62,199.09h1.32v5.71h-1.32v-.6c-.54.51-1.13.76-1.75.76-.79,0-1.44-.29-1.96-.86-.51-.58-.77-1.31-.77-2.18s.26-1.57.77-2.14,1.15-.86,1.92-.86c.66,0,1.26.27,1.79.82v-.66ZM80.49,201.93c0,.55.15.99.44,1.34.3.35.68.52,1.14.52.49,0,.88-.17,1.18-.5.3-.35.45-.79.45-1.32s-.15-.98-.45-1.32c-.3-.34-.69-.51-1.17-.51-.45,0-.83.17-1.14.52-.3.35-.45.78-.45,1.29Z"/><path class="cls-1" d="M89.93,200.06l-1.09.58c-.17-.35-.38-.53-.64-.53-.12,0-.22.04-.31.12s-.13.18-.13.31c0,.22.25.44.76.65.7.3,1.17.58,1.41.83s.36.6.36,1.03c0,.55-.2,1.01-.61,1.38-.39.35-.87.53-1.43.53-.96,0-1.63-.47-2.03-1.4l1.12-.52c.16.27.28.45.36.52.16.15.35.22.57.22.45,0,.67-.2.67-.61,0-.23-.17-.45-.52-.66-.13-.07-.27-.13-.4-.19s-.27-.13-.4-.19c-.38-.19-.65-.38-.81-.56-.2-.24-.3-.54-.3-.92,0-.5.17-.91.51-1.23.35-.32.77-.49,1.27-.49.73,0,1.27.38,1.63,1.13Z"/><path class="cls-1" d="M92.8,194.9v6.04l1.86-1.85h1.77l-2.48,2.4,2.66,3.31h-1.71l-1.89-2.41-.21.21v2.2h-1.32v-9.9h1.32Z"/><path class="cls-1" d="M100.96,196.72c0-.23.08-.43.25-.6s.37-.25.6-.25.44.08.61.25c.17.16.25.37.25.6s-.08.44-.25.61c-.16.17-.37.25-.6.25s-.44-.08-.61-.25-.25-.37-.25-.62ZM102.48,199.09v5.71h-1.32v-5.71h1.32Z"/><path class="cls-1" d="M104.15,199.09h1.32v.53c.46-.46.98-.69,1.56-.69.66,0,1.18.21,1.55.63.32.36.48.94.48,1.74v3.5h-1.32v-3.19c0-.56-.08-.95-.23-1.17-.15-.22-.43-.33-.83-.33-.44,0-.75.14-.93.43-.18.29-.27.78-.27,1.49v2.75h-1.32v-5.71Z"/><path class="cls-1" d="M118.64,199.09h1.32v5.71h-1.32v-.6c-.54.51-1.13.76-1.75.76-.79,0-1.44-.29-1.96-.86-.51-.58-.77-1.31-.77-2.18s.26-1.57.77-2.14,1.15-.86,1.92-.86c.66,0,1.26.27,1.79.82v-.66ZM115.51,201.93c0,.55.15.99.44,1.34.3.35.68.52,1.14.52.49,0,.88-.17,1.18-.5.3-.35.45-.79.45-1.32s-.15-.98-.45-1.32c-.3-.34-.69-.51-1.17-.51-.45,0-.83.17-1.14.52-.3.35-.45.78-.45,1.29Z"/><path class="cls-1" d="M121.62,199.09h1.32v.53c.46-.46.98-.69,1.56-.69.66,0,1.18.21,1.55.63.32.36.48.94.48,1.74v3.5h-1.32v-3.19c0-.56-.08-.95-.23-1.17-.15-.22-.43-.33-.83-.33-.44,0-.75.14-.93.43-.18.29-.27.78-.27,1.49v2.75h-1.32v-5.71Z"/><path class="cls-1" d="M132.41,194.9h1.32v9.9h-1.32v-.6c-.52.51-1.11.76-1.76.76-.78,0-1.43-.29-1.95-.86-.51-.58-.77-1.31-.77-2.18s.26-1.56.77-2.13c.51-.57,1.15-.86,1.92-.86.67,0,1.27.27,1.79.82v-4.85ZM129.28,201.93c0,.55.15.99.44,1.34.3.35.68.52,1.14.52.49,0,.88-.17,1.18-.5.3-.35.45-.79.45-1.32s-.15-.98-.45-1.32c-.3-.34-.69-.51-1.17-.51-.45,0-.83.17-1.14.52-.3.35-.45.78-.45,1.29Z"/><path class="cls-1" d="M144.3,202.25h-4.09c.04.47.19.84.46,1.12.27.27.62.41,1.04.41.33,0,.6-.08.81-.23.21-.16.45-.45.72-.87l1.11.62c-.17.29-.35.54-.54.75s-.4.38-.62.52-.46.23-.71.3-.53.09-.83.09c-.85,0-1.54-.27-2.05-.82-.52-.55-.77-1.28-.77-2.19s.25-1.63.75-2.19c.5-.55,1.17-.83,2-.83s1.5.27,1.99.8c.48.53.73,1.27.73,2.21v.31ZM142.95,201.18c-.18-.7-.63-1.05-1.33-1.05-.16,0-.31.02-.45.07s-.27.12-.38.21-.21.2-.3.33-.14.28-.19.44h2.65Z"/><path class="cls-1" d="M145.74,199.09h1.32v.53c.25-.27.47-.45.65-.54.19-.1.43-.15.72-.15.64,0,1.15.28,1.53.84.41-.56.97-.84,1.68-.84,1.29,0,1.93.78,1.93,2.34v3.53h-1.32v-3.17c0-.55-.07-.93-.2-1.16-.14-.23-.36-.35-.67-.35-.36,0-.63.14-.79.41s-.25.71-.25,1.32v2.95h-1.32v-3.15c0-1.02-.29-1.52-.88-1.52-.37,0-.64.14-.81.42s-.25.71-.25,1.31v2.95h-1.32v-5.71Z"/><path class="cls-1" d="M156.55,194.9v4.85c.53-.55,1.12-.82,1.79-.82.77,0,1.41.29,1.92.86.51.57.77,1.28.77,2.13s-.26,1.61-.77,2.18c-.51.57-1.16.86-1.94.86-.66,0-1.25-.25-1.77-.76v.6h-1.32v-9.9h1.32ZM159.69,201.98c0-.55-.15-.99-.45-1.34-.3-.35-.68-.53-1.13-.53-.48,0-.88.17-1.18.51-.3.34-.45.77-.45,1.31s.15,1,.45,1.33c.3.34.69.51,1.17.51.46,0,.84-.17,1.14-.51.3-.34.46-.77.46-1.29Z"/><path class="cls-1" d="M162.16,201.9c0-.82.29-1.53.88-2.1s1.31-.87,2.16-.87,1.57.29,2.17.87c.59.58.88,1.3.88,2.14s-.29,1.57-.88,2.15c-.59.57-1.32.86-2.19.86s-1.57-.29-2.15-.88c-.58-.58-.87-1.3-.87-2.18ZM163.51,201.93c0,.57.15,1.02.46,1.35.31.34.72.5,1.24.5s.93-.17,1.24-.5.46-.78.46-1.33-.15-1-.46-1.33c-.31-.34-.72-.5-1.24-.5s-.91.17-1.22.5-.47.77-.47,1.3Z"/><path class="cls-1" d="M173.85,194.9h1.32v9.9h-1.32v-.6c-.52.51-1.11.76-1.76.76-.78,0-1.43-.29-1.95-.86-.51-.58-.77-1.31-.77-2.18s.26-1.56.77-2.13c.51-.57,1.15-.86,1.92-.86.67,0,1.27.27,1.79.82v-4.85ZM170.72,201.93c0,.55.15.99.44,1.34.3.35.68.52,1.14.52.49,0,.88-.17,1.18-.5.3-.35.45-.79.45-1.32s-.15-.98-.45-1.32c-.3-.34-.69-.51-1.17-.51-.45,0-.83.17-1.14.52-.3.35-.45.78-.45,1.29Z"/><path class="cls-1" d="M178.64,203.74l-2.57-4.65h1.53l1.75,3.28,1.63-3.28h1.49l-4.55,8.81h-1.51l2.23-4.17Z"/><path class="cls-1" d="M188.42,200.32v4.48h-1.32v-4.48h-.56v-1.23h.56v-2.09h1.32v2.09h1.03v1.23h-1.03Z"/><path class="cls-1" d="M190.58,194.9h1.32v4.66c.47-.42.99-.63,1.55-.63.64,0,1.16.21,1.55.63.33.36.49.94.49,1.74v3.5h-1.32v-3.38c0-.46-.08-.79-.24-.99s-.42-.31-.78-.31c-.46,0-.79.14-.97.43-.18.29-.28.79-.28,1.49v2.76h-1.32v-9.9Z"/><path class="cls-1" d="M202.36,202.25h-4.09c.04.47.19.84.46,1.12.27.27.62.41,1.04.41.33,0,.6-.08.81-.23.21-.16.45-.45.72-.87l1.11.62c-.17.29-.35.54-.54.75s-.4.38-.62.52-.46.23-.71.3-.53.09-.83.09c-.85,0-1.54-.27-2.05-.82-.52-.55-.77-1.28-.77-2.19s.25-1.63.75-2.19c.5-.55,1.17-.83,2-.83s1.5.27,1.99.8c.48.53.73,1.27.73,2.21v.31ZM201.01,201.18c-.18-.7-.63-1.05-1.33-1.05-.16,0-.31.02-.45.07s-.27.12-.38.21-.21.2-.3.33-.14.28-.19.44h2.65Z"/><path class="cls-1" d="M208.87,200.32v4.48h-1.32v-4.48h-.47v-1.23h.47v-2.2c0-.72.12-1.23.38-1.52.34-.41.84-.62,1.5-.62.23,0,.53.07.88.21v1.35l-.13-.07c-.29-.14-.52-.22-.7-.22-.23,0-.39.08-.47.25-.08.16-.12.48-.12.95v1.88h1.44v1.23h-1.44Z"/><path class="cls-1" d="M210.95,201.9c0-.82.29-1.53.88-2.1s1.31-.87,2.16-.87,1.57.29,2.17.87c.59.58.88,1.3.88,2.14s-.29,1.57-.88,2.15c-.59.57-1.32.86-2.19.86s-1.57-.29-2.15-.88c-.58-.58-.87-1.3-.87-2.18ZM212.29,201.93c0,.57.15,1.02.46,1.35.31.34.72.5,1.24.5s.93-.17,1.24-.5.46-.78.46-1.33-.15-1-.46-1.33c-.31-.34-.72-.5-1.24-.5s-.91.17-1.22.5-.47.77-.47,1.3Z"/><path class="cls-1" d="M223.95,204.66c0,.27,0,.51-.03.71s-.04.39-.07.54c-.09.43-.28.8-.55,1.11-.52.59-1.22.89-2.13.89-.76,0-1.39-.21-1.88-.62-.51-.42-.8-1.01-.88-1.75h1.32c.05.28.13.5.25.65.27.36.67.53,1.2.53.96,0,1.45-.59,1.45-1.78v-.8c-.52.54-1.13.8-1.81.8-.78,0-1.41-.28-1.91-.84-.5-.57-.75-1.28-.75-2.14s.23-1.54.7-2.12c.5-.62,1.16-.93,1.98-.93.72,0,1.32.27,1.79.8v-.64h1.32v5.57ZM222.68,201.95c0-.55-.15-1-.45-1.33-.3-.34-.69-.51-1.15-.51-.5,0-.89.19-1.18.56-.26.33-.39.76-.39,1.29s.13.95.39,1.28c.29.36.68.54,1.18.54s.9-.18,1.2-.55c.27-.33.4-.76.4-1.28Z"/><path class="cls-1" d="M225.82,204.14c0-.22.08-.41.24-.57s.35-.24.57-.24.41.08.57.24.24.35.24.57-.08.42-.24.58-.35.23-.57.23-.42-.08-.58-.23-.23-.35-.23-.59Z"/></svg>